<svg width="212" height="56" viewBox="0 0 212 56" fill="none" xmlns="http://www.w3.org/2000/svg">
<path fill-rule="evenodd" clip-rule="evenodd" d="M24.4999 36.4887C34.3406 36.4887 42.3181 28.5112 42.3181 18.6705C42.3181 16.9766 42.0817 15.3379 41.6401 13.7856C46.1818 18.2328 49 24.4332 49 31.2918C49 44.8227 38.031 55.7918 24.5 55.7918C10.969 55.7918 0 44.8227 0 31.2918C0 24.4333 2.81812 18.2331 7.35957 13.7859C6.91806 15.3381 6.68172 16.9767 6.68172 18.6705C6.68172 28.5112 14.6592 36.4887 24.4999 36.4887ZM7.35957 13.7859C9.48313 6.31996 16.353 0.852356 24.4999 0.852356C32.6467 0.852356 39.5165 6.31982 41.6401 13.7856C37.2218 9.45908 31.1724 6.79177 24.5 6.79177C17.8275 6.79177 11.7779 9.45919 7.35957 13.7859Z" fill="#13D726"/>
<path d="M75.904 16.8604C77.56 16.8604 78.916 17.0884 79.972 17.5444C81.028 18.0004 81.976 18.5524 82.816 19.2004C83.08 19.4164 83.32 19.5244 83.536 19.5244C83.992 19.5244 84.292 18.8044 84.436 17.3644H85.264C85.216 18.3004 85.18 19.4524 85.156 20.8204C85.132 22.1884 85.12 23.9884 85.12 26.2204H84.292C84.124 24.6364 83.848 23.2924 83.464 22.1884C83.08 21.0604 82.348 20.1004 81.268 19.3084C80.716 18.8524 80.056 18.5044 79.288 18.2644C78.544 18.0004 77.8 17.8684 77.056 17.8684C75.712 17.8684 74.572 18.2404 73.636 18.9844C72.724 19.7044 71.98 20.6644 71.404 21.8644C70.828 23.0404 70.408 24.3604 70.144 25.8244C69.904 27.2644 69.784 28.7164 69.784 30.1804C69.784 34.5004 70.336 37.6564 71.44 39.6484C72.568 41.6404 74.128 42.6364 76.12 42.6364C76.6 42.6364 77.02 42.5884 77.38 42.4924C77.74 42.3724 78.04 42.2284 78.28 42.0604C78.592 41.8444 78.808 41.5924 78.928 41.3044C79.048 41.0164 79.108 40.6564 79.108 40.2244V36.6604C79.108 35.5324 79.012 34.6924 78.82 34.1404C78.628 33.5644 78.268 33.1804 77.74 32.9884C77.236 32.7724 76.48 32.6524 75.472 32.6284V31.9084C76 31.9324 76.636 31.9564 77.38 31.9804C78.124 31.9804 78.904 31.9924 79.72 32.0164C80.536 32.0164 81.292 32.0164 81.988 32.0164C83.068 32.0164 84.052 32.0044 84.94 31.9804C85.852 31.9564 86.596 31.9324 87.172 31.9084V32.6284C86.74 32.6524 86.404 32.7364 86.164 32.8804C85.948 33.0244 85.804 33.3124 85.732 33.7444C85.66 34.1764 85.624 34.8364 85.624 35.7244V42.8524H84.904C84.88 42.4444 84.784 42.0004 84.616 41.5204C84.448 41.0404 84.172 40.8004 83.788 40.8004C83.62 40.8004 83.38 40.8484 83.068 40.9444C82.756 41.0404 82.264 41.2564 81.592 41.5924C80.704 42.0724 79.744 42.4924 78.712 42.8524C77.704 43.1884 76.672 43.3564 75.616 43.3564C72.712 43.3564 70.276 42.8404 68.308 41.8084C66.364 40.7764 64.9 39.3004 63.916 37.3804C62.932 35.4364 62.44 33.0964 62.44 30.3604C62.44 27.6484 63.016 25.2844 64.168 23.2684C65.32 21.2524 66.904 19.6804 68.92 18.5524C70.96 17.4244 73.288 16.8604 75.904 16.8604ZM98.0842 23.7004C99.8842 23.7004 101.456 24.0244 102.8 24.6724C104.168 25.2964 105.224 26.3284 105.968 27.7684C106.736 29.2084 107.12 31.1284 107.12 33.5284C107.12 35.9284 106.736 37.8484 105.968 39.2884C105.224 40.7284 104.168 41.7724 102.8 42.4204C101.456 43.0444 99.8842 43.3564 98.0842 43.3564C96.3082 43.3564 94.7362 43.0444 93.3682 42.4204C92.0242 41.7724 90.9682 40.7284 90.2002 39.2884C89.4322 37.8484 89.0482 35.9284 89.0482 33.5284C89.0482 31.1284 89.4322 29.2084 90.2002 27.7684C90.9682 26.3284 92.0242 25.2964 93.3682 24.6724C94.7362 24.0244 96.3082 23.7004 98.0842 23.7004ZM98.0842 24.4204C97.2442 24.4204 96.5362 25.1404 95.9602 26.5804C95.4082 27.9964 95.1322 30.3124 95.1322 33.5284C95.1322 36.7444 95.4082 39.0724 95.9602 40.5124C96.5362 41.9284 97.2442 42.6364 98.0842 42.6364C98.9482 42.6364 99.6562 41.9284 100.208 40.5124C100.76 39.0724 101.036 36.7444 101.036 33.5284C101.036 30.3124 100.76 27.9964 100.208 26.5804C99.6562 25.1404 98.9482 24.4204 98.0842 24.4204ZM124.8 18.3364V24.2044H128.688V24.9244H124.8V39.6484C124.8 40.2484 124.908 40.6804 125.124 40.9444C125.34 41.1844 125.664 41.3044 126.096 41.3044C126.456 41.3044 126.828 41.1844 127.212 40.9444C127.62 40.7044 127.992 40.2964 128.328 39.7204L128.904 40.0804C128.448 41.0644 127.812 41.8564 126.996 42.4564C126.204 43.0564 125.16 43.3564 123.864 43.3564C123.072 43.3564 122.364 43.2484 121.74 43.0324C121.14 42.8404 120.636 42.5404 120.228 42.1324C119.7 41.6044 119.352 40.9564 119.184 40.1884C119.04 39.3964 118.968 38.3764 118.968 37.1284V24.9244H116.088V24.2044H118.968V19.7044C120.096 19.7044 121.128 19.5964 122.064 19.3804C123.024 19.1644 123.936 18.8164 124.8 18.3364ZM142.353 23.7004C143.169 23.7004 143.817 23.8804 144.297 24.2404C144.777 24.5764 145.125 25.0204 145.341 25.5724C145.557 26.1004 145.665 26.6284 145.665 27.1564C145.665 28.1404 145.377 28.9324 144.801 29.5324C144.249 30.1324 143.517 30.4324 142.605 30.4324C141.645 30.4324 140.913 30.2164 140.409 29.7844C139.905 29.3284 139.653 28.7284 139.653 27.9844C139.653 27.2404 139.809 26.6284 140.121 26.1484C140.457 25.6684 140.865 25.2604 141.345 24.9244C140.985 24.8764 140.637 24.9244 140.301 25.0684C139.917 25.1644 139.557 25.3444 139.221 25.6084C138.885 25.8724 138.597 26.1844 138.357 26.5444C138.117 26.9044 137.925 27.3004 137.781 27.7324C137.661 28.1404 137.601 28.5604 137.601 28.9924V39.1444C137.601 40.2964 137.853 41.0764 138.357 41.4844C138.885 41.8924 139.713 42.0964 140.841 42.0964V42.8524C140.289 42.8284 139.473 42.8044 138.393 42.7804C137.313 42.7324 136.197 42.7084 135.045 42.7084C134.013 42.7084 132.969 42.7324 131.913 42.7804C130.881 42.8044 130.113 42.8284 129.609 42.8524V42.0964C130.401 42.0964 130.953 41.9164 131.265 41.5564C131.601 41.1964 131.769 40.5124 131.769 39.5044V28.1284C131.769 27.0484 131.613 26.2564 131.301 25.7524C130.989 25.2244 130.425 24.9604 129.609 24.9604V24.2044C130.377 24.2764 131.121 24.3124 131.841 24.3124C132.921 24.3124 133.941 24.2764 134.901 24.2044C135.885 24.1084 136.785 23.9764 137.601 23.8084V26.7604C137.889 26.1364 138.261 25.5964 138.717 25.1404C139.197 24.6844 139.737 24.3364 140.337 24.0964C140.961 23.8324 141.633 23.7004 142.353 23.7004ZM151.556 43.1044C150.452 43.1044 149.54 42.9004 148.82 42.4924C148.1 42.0604 147.572 41.4964 147.236 40.8004C146.9 40.1044 146.732 39.3604 146.732 38.5684C146.732 37.5604 146.96 36.7324 147.416 36.0844C147.896 35.4364 148.508 34.9204 149.252 34.5364C149.996 34.1284 150.776 33.7924 151.592 33.5284C152.408 33.2644 153.188 33.0124 153.932 32.7724C154.676 32.5084 155.276 32.2084 155.732 31.8724C156.188 31.5124 156.416 31.0564 156.416 30.5044V27.5164C156.416 26.9884 156.332 26.4964 156.164 26.0404C156.02 25.5604 155.744 25.1764 155.336 24.8884C154.952 24.5764 154.412 24.4204 153.716 24.4204C153.284 24.4204 152.864 24.4804 152.456 24.6004C152.048 24.7204 151.688 24.9124 151.376 25.1764C152.144 25.4404 152.708 25.8364 153.068 26.3644C153.452 26.8924 153.644 27.4804 153.644 28.1284C153.644 29.0164 153.332 29.7244 152.708 30.2524C152.108 30.7564 151.388 31.0084 150.548 31.0084C149.636 31.0084 148.928 30.7204 148.424 30.1444C147.944 29.5684 147.704 28.8724 147.704 28.0564C147.704 27.3364 147.884 26.7364 148.244 26.2564C148.604 25.7524 149.132 25.2964 149.828 24.8884C150.524 24.4804 151.364 24.1804 152.348 23.9884C153.332 23.7964 154.376 23.7004 155.48 23.7004C156.608 23.7004 157.64 23.8204 158.576 24.0604C159.536 24.2764 160.352 24.7204 161.024 25.3924C161.552 25.9444 161.888 26.6164 162.032 27.4084C162.176 28.2004 162.248 29.2084 162.248 30.4324V40.1524C162.248 40.7524 162.296 41.1724 162.392 41.4124C162.512 41.6284 162.692 41.7364 162.932 41.7364C163.148 41.7364 163.352 41.6764 163.544 41.5564C163.736 41.4364 163.928 41.3044 164.12 41.1604L164.516 41.7724C163.988 42.2044 163.364 42.5404 162.644 42.7804C161.924 42.9964 161.144 43.1044 160.304 43.1044C159.344 43.1044 158.588 42.9844 158.036 42.7444C157.508 42.4804 157.124 42.1324 156.884 41.7004C156.668 41.2684 156.548 40.7884 156.524 40.2604C155.996 41.1244 155.336 41.8204 154.544 42.3484C153.752 42.8524 152.756 43.1044 151.556 43.1044ZM154.544 40.5124C154.928 40.5124 155.264 40.4404 155.552 40.2964C155.864 40.1284 156.152 39.8524 156.416 39.4684V31.9804C156.224 32.3164 155.96 32.6404 155.624 32.9524C155.312 33.2404 154.976 33.5404 154.616 33.8524C154.256 34.1404 153.908 34.4644 153.572 34.8244C153.26 35.1844 152.996 35.6164 152.78 36.1204C152.588 36.6004 152.492 37.1884 152.492 37.8844C152.492 38.8204 152.684 39.4924 153.068 39.9004C153.452 40.3084 153.944 40.5124 154.544 40.5124ZM182.793 24.2044V24.9604C182.337 25.1044 181.905 25.4044 181.497 25.8604C181.089 26.3164 180.681 27.1084 180.273 28.2364L175.197 42.8884C174.717 42.8404 174.237 42.8164 173.757 42.8164C173.277 42.8164 172.785 42.8404 172.281 42.8884L165.945 26.9764C165.585 26.0644 165.213 25.5004 164.829 25.2844C164.445 25.0684 164.121 24.9604 163.857 24.9604V24.2044C164.721 24.2524 165.621 24.3004 166.557 24.3484C167.493 24.3724 168.513 24.3844 169.617 24.3844C170.361 24.3844 171.141 24.3724 171.957 24.3484C172.797 24.3004 173.577 24.2524 174.297 24.2044V24.9604C173.841 24.9604 173.421 24.9844 173.037 25.0324C172.677 25.0804 172.413 25.2124 172.245 25.4284C172.101 25.6444 172.113 26.0404 172.281 26.6164L176.385 37.8124L175.989 38.4244L178.401 31.4764C178.905 30.0124 179.121 28.8124 179.049 27.8764C178.977 26.9404 178.701 26.2324 178.221 25.7524C177.765 25.2724 177.153 25.0084 176.385 24.9604V24.2044C176.745 24.2284 177.141 24.2524 177.573 24.2764C178.029 24.3004 178.473 24.3244 178.905 24.3484C179.361 24.3484 179.733 24.3484 180.021 24.3484C180.477 24.3484 180.981 24.3364 181.533 24.3124C182.085 24.2884 182.505 24.2524 182.793 24.2044ZM192.444 23.7004C194.556 23.7004 196.212 24.3244 197.412 25.5724C198.612 26.8204 199.212 28.8724 199.212 31.7284H187.656L187.62 31.0444H194.316C194.364 29.8684 194.316 28.7884 194.172 27.8044C194.028 26.7964 193.788 25.9924 193.452 25.3924C193.14 24.7924 192.72 24.4924 192.192 24.4924C191.472 24.4924 190.86 25.0084 190.356 26.0404C189.852 27.0724 189.54 28.8244 189.42 31.2964L189.564 31.5484C189.516 31.8124 189.492 32.0884 189.492 32.3764C189.492 32.6404 189.492 32.9284 189.492 33.2404C189.492 34.8964 189.708 36.2164 190.14 37.2004C190.596 38.1844 191.16 38.8804 191.832 39.2884C192.504 39.6964 193.2 39.9004 193.92 39.9004C194.328 39.9004 194.784 39.8404 195.288 39.7204C195.792 39.6004 196.32 39.3484 196.872 38.9644C197.424 38.5804 197.952 38.0164 198.456 37.2724L199.068 37.4884C198.804 38.4244 198.348 39.3484 197.7 40.2604C197.076 41.1484 196.272 41.8924 195.288 42.4924C194.304 43.0684 193.116 43.3564 191.724 43.3564C190.14 43.3564 188.724 43.0324 187.476 42.3844C186.228 41.7124 185.232 40.6684 184.488 39.2524C183.768 37.8124 183.408 35.9404 183.408 33.6364C183.408 31.3564 183.804 29.4844 184.596 28.0204C185.388 26.5564 186.468 25.4764 187.836 24.7804C189.204 24.0604 190.74 23.7004 192.444 23.7004ZM209 14.7004V39.5044C209 40.5124 209.156 41.1964 209.468 41.5564C209.804 41.9164 210.368 42.0964 211.16 42.0964V42.8524C210.704 42.8284 210.008 42.8044 209.072 42.7804C208.136 42.7324 207.176 42.7084 206.192 42.7084C205.232 42.7084 204.248 42.7324 203.24 42.7804C202.256 42.8044 201.512 42.8284 201.008 42.8524V42.0964C201.8 42.0964 202.352 41.9164 202.664 41.5564C203 41.1964 203.168 40.5124 203.168 39.5044V18.9844C203.168 17.9284 203.012 17.1484 202.7 16.6444C202.412 16.1164 201.848 15.8524 201.008 15.8524V15.0964C201.776 15.1684 202.52 15.2044 203.24 15.2044C204.344 15.2044 205.376 15.1684 206.336 15.0964C207.296 15.0004 208.184 14.8684 209 14.7004Z" fill="#F3F4F6"/>
</svg>
